<?xml version="1.0" standalone="no"?><!DOCTYPE svg PUBLIC "-//W3C//DTD SVG 1.1//EN" "http://www.w3.org/Graphics/SVG/1.1/DTD/svg11.dtd"><svg t="1652721001148" class="icon" viewBox="0 0 1024 1024" version="1.1" xmlns="http://www.w3.org/2000/svg" p-id="7402" xmlns:xlink="http://www.w3.org/1999/xlink" width="50" height="50"><defs><style type="text/css">@font-face { font-family: element-icons; src: url("chrome-extension://moombeodfomdpjnpocobemoiaemednkg/fonts/element-icons.woff") format("woff"), url("chrome-extension://moombeodfomdpjnpocobemoiaemednkg/fonts/element-icons.ttf ") format("truetype"); }
@font-face { font-family: feedback-iconfont; src: url("//at.alicdn.com/t/font_1031158_u69w8yhxdu.woff2?t=1630033759944") format("woff2"), url("//at.alicdn.com/t/font_1031158_u69w8yhxdu.woff?t=1630033759944") format("woff"), url("//at.alicdn.com/t/font_1031158_u69w8yhxdu.ttf?t=1630033759944") format("truetype"); }
</style></defs><path d="M900.7 432.2H548.4V109.3c0-20.2-16.5-36.7-36.7-36.7-20.2 0-36.7 16.5-36.7 36.7v322.9H122.8c-20.2 0-36.7 16.5-36.7 36.7 0 20.2 16.5 36.7 36.7 36.7h352.3v381.6c0 20.2 16.5 36.7 36.7 36.7 20.2 0 36.7-16.5 36.7-36.7V505.6h352.3c20.2 0 36.7-16.5 36.7-36.7-0.1-20.2-16.6-36.7-36.8-36.7z" p-id="7403"></path></svg>